<svg width="1280" height="720" viewBox="0 0 1280 720" fill="none" xmlns="http://www.w3.org/2000/svg">
<g clip-path="url(#clip0_3_9)">
<rect width="1280" height="720" fill="#6B7280" fill-opacity="0.8"/>
<g filter="url(#filter0_d_3_9)">
<path d="M1242 20C1250.28 20 1257 26.7157 1257 35V684C1257 692.284 1250.28 699 1242 699H35C26.7157 699 20 692.284 20 684V35C20 26.7157 26.7157 20 35 20H1242ZM389.129 39.9707C383.606 39.9708 379.129 44.4479 379.129 49.9707V109.853C379.129 115.375 383.606 119.852 389.129 119.853H1210.09C1215.61 119.852 1220.09 115.375 1220.09 109.853V49.9707C1220.09 44.448 1215.61 39.9709 1210.09 39.9707H389.129Z" fill="white"/>
</g>
<path d="M394 45.5L1205 45.5C1210.25 45.5 1214.5 49.7533 1214.5 55V105C1214.5 110.247 1210.25 114.5 1205 114.5L394 114.5C388.753 114.5 384.5 110.247 384.5 105V55C384.5 49.7533 388.753 45.5 394 45.5Z" fill="white" stroke="#BFBEBE"/>
<g filter="url(#filter1_d_3_9)">
<path d="M60 150C60 144.477 64.4772 140 70 140H288C293.523 140 298 144.477 298 150V210C298 215.523 293.523 220 288 220H70C64.4772 220 60 215.523 60 210V150Z" fill="white"/>
<path d="M70 140.5H288C293.247 140.5 297.5 144.753 297.5 150V210C297.5 215.247 293.247 219.5 288 219.5H70C64.7533 219.5 60.5 215.247 60.5 210V150C60.5 144.753 64.7533 140.5 70 140.5Z" stroke="#C5C5C5"/>
</g>
<g filter="url(#filter2_d_3_9)">
<path d="M60 250C60 244.477 64.4772 240 70 240H610C615.523 240 620 244.477 620 250V410C620 415.523 615.523 420 610 420H70C64.4771 420 60 415.523 60 410V250Z" fill="white"/>
<path d="M70 240.5H610C615.247 240.5 619.5 244.753 619.5 250V410C619.5 415.247 615.247 419.5 610 419.5H70C64.7533 419.5 60.5 415.247 60.5 410V250C60.5 244.753 64.7533 240.5 70 240.5Z" stroke="#C5C5C5"/>
</g>
<g filter="url(#filter3_d_3_9)">
<path d="M60 451C60 445.477 64.4772 441 70 441H610C615.523 441 620 445.477 620 451V671C620 676.523 615.523 681 610 681H70C64.4771 681 60 676.523 60 671V451Z" fill="white"/>
<path d="M70 441.5H610C615.247 441.5 619.5 445.753 619.5 451V671C619.5 676.247 615.247 680.5 610 680.5H70C64.7533 680.5 60.5 676.247 60.5 671V451C60.5 445.753 64.7533 441.5 70 441.5Z" stroke="#C5C5C5"/>
</g>
<g filter="url(#filter4_d_3_9)">
<path d="M660 451C660 445.477 664.477 441 670 441H1210C1215.52 441 1220 445.477 1220 451V671C1220 676.523 1215.52 681 1210 681H670C664.477 681 660 676.523 660 671V451Z" fill="white"/>
<path d="M670 441.5H1210C1215.25 441.5 1219.5 445.753 1219.5 451V671C1219.5 676.247 1215.25 680.5 1210 680.5H670C664.753 680.5 660.5 676.247 660.5 671V451C660.5 445.753 664.753 441.5 670 441.5Z" stroke="#C5C5C5"/>
</g>
<g filter="url(#filter5_d_3_9)">
<path d="M660 250C660 244.477 664.477 240 670 240H1210C1215.52 240 1220 244.477 1220 250V410C1220 415.523 1215.52 420 1210 420H670C664.477 420 660 415.523 660 410V250Z" fill="white"/>
<path d="M670 240.5H1210C1215.25 240.5 1219.5 244.753 1219.5 250V410C1219.5 415.247 1215.25 419.5 1210 419.5H670C664.753 419.5 660.5 415.247 660.5 410V250C660.5 244.753 664.753 240.5 670 240.5Z" stroke="#C5C5C5"/>
</g>
<g filter="url(#filter6_d_3_9)">
<path d="M660 150C660 144.477 664.477 140 670 140H910C915.523 140 920 144.477 920 150V210C920 215.523 915.523 220 910 220H670C664.477 220 660 215.523 660 210V150Z" fill="white"/>
<path d="M670 140.5H910C915.247 140.5 919.5 144.753 919.5 150V210C919.5 215.247 915.247 219.5 910 219.5H670C664.753 219.5 660.5 215.247 660.5 210V150C660.5 144.753 664.753 140.5 670 140.5Z" stroke="#C5C5C5"/>
</g>
<g filter="url(#filter7_d_3_9)">
<path d="M360 150C360 144.477 364.477 140 370 140H590C595.523 140 600 144.477 600 150V210C600 215.523 595.523 220 590 220H370C364.477 220 360 215.523 360 210V150Z" fill="white"/>
<path d="M370 140.5H590C595.247 140.5 599.5 144.753 599.5 150V210C599.5 215.247 595.247 219.5 590 219.5H370C364.753 219.5 360.5 215.247 360.5 210V150C360.5 144.753 364.753 140.5 370 140.5Z" stroke="#C5C5C5"/>
</g>
<g filter="url(#filter8_d_3_9)">
<path d="M980 150C980 144.477 984.477 140 990 140H1210C1215.52 140 1220 144.477 1220 150V210C1220 215.523 1215.52 220 1210 220H990C984.477 220 980 215.523 980 210V150Z" fill="white"/>
<path d="M990 140.5H1210C1215.25 140.5 1219.5 144.753 1219.5 150V210C1219.5 215.247 1215.25 219.5 1210 219.5H990C984.753 219.5 980.5 215.247 980.5 210V150C980.5 144.753 984.753 140.5 990 140.5Z" stroke="#C5C5C5"/>
</g>
<g clip-path="url(#clip1_3_9)">
<path d="M126.667 43.8261H80.1085C69.5894 43.8261 61.062 52.1039 61.062 62.3152V107.511C61.062 117.722 69.5894 126 80.1085 126H126.667C137.186 126 145.713 117.722 145.713 107.511V62.3152C145.713 52.1039 137.186 43.8261 126.667 43.8261Z" fill="url(#paint0_linear_3_9)"/>
<path d="M92.8062 78.0652C92.8062 67.7935 113.969 67.7935 113.969 78.0652" stroke="white" stroke-width="3.5" stroke-linecap="round"/>
<path d="M116.085 78.0652H90.6899C87.9627 78.0652 85.7519 80.2113 85.7519 82.8587V104.087C85.7519 106.734 87.9627 108.88 90.6899 108.88H116.085C118.812 108.88 121.023 106.734 121.023 104.087V82.8587C121.023 80.2113 118.812 78.0652 116.085 78.0652Z" fill="white"/>
<path d="M121.023 84.2283H85.7519V86.9674H121.023V84.2283Z" fill="#DC2626"/>
<path d="M92.1008 100.321L99.8605 95.1848L107.62 97.9239L116.085 89.3641" stroke="#FCD34D" stroke-width="2.8" stroke-linecap="round" stroke-linejoin="round"/>
<path d="M116.085 92.4457C117.838 92.4457 119.26 91.066 119.26 89.3641C119.26 87.6623 117.838 86.2826 116.085 86.2826C114.332 86.2826 112.911 87.6623 112.911 89.3641C112.911 91.066 114.332 92.4457 116.085 92.4457Z" fill="#FCD34D" stroke="#DC2626" stroke-width="1.05"/>
<path d="M161.844 87.5435V64.2707H177.254V68.3276H166.765V73.873H176.231V77.9298H166.765V87.5435H161.844ZM187.077 87.8844C185.312 87.8844 183.786 87.5094 182.498 86.7594C181.218 86.0018 180.229 84.9488 179.532 83.6003C178.835 82.2442 178.486 80.6723 178.486 78.8844C178.486 77.0814 178.835 75.5056 179.532 74.1571C180.229 72.801 181.218 71.748 182.498 70.998C183.786 70.2404 185.312 69.8617 187.077 69.8617C188.843 69.8617 190.365 70.2404 191.646 70.998C192.933 71.748 193.926 72.801 194.623 74.1571C195.32 75.5056 195.668 77.0814 195.668 78.8844C195.668 80.6723 195.32 82.2442 194.623 83.6003C193.926 84.9488 192.933 86.0018 191.646 86.7594C190.365 87.5094 188.843 87.8844 187.077 87.8844ZM187.1 84.1344C187.903 84.1344 188.574 83.9071 189.111 83.4526C189.649 82.9904 190.055 82.3617 190.327 81.5662C190.608 80.7707 190.748 79.8654 190.748 78.8503C190.748 77.8351 190.608 76.9298 190.327 76.1344C190.055 75.3389 189.649 74.7101 189.111 74.248C188.574 73.7859 187.903 73.5548 187.1 73.5548C186.29 73.5548 185.608 73.7859 185.055 74.248C184.509 74.7101 184.096 75.3389 183.816 76.1344C183.543 76.9298 183.407 77.8351 183.407 78.8503C183.407 79.8654 183.543 80.7707 183.816 81.5662C184.096 82.3617 184.509 82.9904 185.055 83.4526C185.608 83.9071 186.29 84.1344 187.1 84.1344ZM206.702 87.8844C204.937 87.8844 203.411 87.5094 202.123 86.7594C200.843 86.0018 199.854 84.9488 199.157 83.6003C198.46 82.2442 198.111 80.6723 198.111 78.8844C198.111 77.0814 198.46 75.5056 199.157 74.1571C199.854 72.801 200.843 71.748 202.123 70.998C203.411 70.2404 204.937 69.8617 206.702 69.8617C208.468 69.8617 209.99 70.2404 211.271 70.998C212.558 71.748 213.551 72.801 214.248 74.1571C214.945 75.5056 215.293 77.0814 215.293 78.8844C215.293 80.6723 214.945 82.2442 214.248 83.6003C213.551 84.9488 212.558 86.0018 211.271 86.7594C209.99 87.5094 208.468 87.8844 206.702 87.8844ZM206.725 84.1344C207.528 84.1344 208.199 83.9071 208.736 83.4526C209.274 82.9904 209.68 82.3617 209.952 81.5662C210.233 80.7707 210.373 79.8654 210.373 78.8503C210.373 77.8351 210.233 76.9298 209.952 76.1344C209.68 75.3389 209.274 74.7101 208.736 74.248C208.199 73.7859 207.528 73.5548 206.725 73.5548C205.915 73.5548 205.233 73.7859 204.68 74.248C204.134 74.7101 203.721 75.3389 203.441 76.1344C203.168 76.9298 203.032 77.8351 203.032 78.8503C203.032 79.8654 203.168 80.7707 203.441 81.5662C203.721 82.3617 204.134 82.9904 204.68 83.4526C205.233 83.9071 205.915 84.1344 206.725 84.1344ZM224.873 87.8276C223.547 87.8276 222.346 87.4867 221.271 86.8048C220.202 86.1154 219.354 85.1041 218.725 83.7707C218.104 82.4298 217.793 80.7859 217.793 78.8389C217.793 76.8389 218.115 75.176 218.759 73.8503C219.403 72.517 220.259 71.5207 221.327 70.8617C222.403 70.195 223.581 69.8617 224.861 69.8617C225.839 69.8617 226.653 70.0283 227.305 70.3617C227.964 70.6874 228.494 71.0965 228.896 71.5889C229.305 72.0738 229.615 72.551 229.827 73.0207H229.975V64.2707H234.805V87.5435H230.032V84.748H229.827C229.6 85.2329 229.278 85.7139 228.861 86.1912C228.452 86.6609 227.918 87.051 227.259 87.3617C226.608 87.6723 225.812 87.8276 224.873 87.8276ZM226.407 83.9753C227.187 83.9753 227.846 83.7632 228.384 83.3389C228.93 82.9071 229.346 82.3048 229.634 81.5321C229.93 80.7594 230.077 79.8541 230.077 78.8162C230.077 77.7783 229.933 76.8768 229.646 76.1117C229.358 75.3465 228.941 74.7556 228.396 74.3389C227.85 73.9223 227.187 73.7139 226.407 73.7139C225.611 73.7139 224.941 73.9298 224.396 74.3617C223.85 74.7935 223.437 75.392 223.157 76.1571C222.877 76.9223 222.736 77.8086 222.736 78.8162C222.736 79.8314 222.877 80.7291 223.157 81.5094C223.445 82.2821 223.858 82.8882 224.396 83.3276C224.941 83.7594 225.611 83.9753 226.407 83.9753ZM259.41 72.4185H254.433C254.342 71.7745 254.156 71.2026 253.876 70.7026C253.595 70.195 253.236 69.7632 252.796 69.4071C252.357 69.051 251.849 68.7783 251.273 68.5889C250.705 68.3995 250.088 68.3048 249.421 68.3048C248.217 68.3048 247.167 68.6041 246.273 69.2026C245.379 69.7935 244.686 70.6571 244.194 71.7935C243.701 72.9223 243.455 74.2935 243.455 75.9071C243.455 77.5662 243.701 78.9601 244.194 80.0889C244.694 81.2177 245.391 82.07 246.285 82.6457C247.179 83.2215 248.213 83.5094 249.387 83.5094C250.046 83.5094 250.656 83.4223 251.217 83.248C251.785 83.0738 252.289 82.82 252.728 82.4867C253.167 82.1457 253.531 81.7329 253.819 81.248C254.114 80.7632 254.319 80.2101 254.433 79.5889L259.41 79.6117C259.281 80.6798 258.959 81.7101 258.444 82.7026C257.936 83.6874 257.251 84.57 256.387 85.3503C255.531 86.123 254.508 86.7367 253.319 87.1912C252.137 87.6382 250.8 87.8617 249.308 87.8617C247.232 87.8617 245.376 87.392 243.739 86.4526C242.111 85.5132 240.823 84.1533 239.876 82.373C238.936 80.5927 238.467 78.4374 238.467 75.9071C238.467 73.3692 238.944 71.2101 239.898 69.4298C240.853 67.6495 242.148 66.2935 243.785 65.3617C245.421 64.4223 247.262 63.9526 249.308 63.9526C250.656 63.9526 251.906 64.142 253.058 64.5207C254.217 64.8995 255.243 65.4526 256.137 66.1798C257.031 66.8995 257.758 67.7821 258.319 68.8276C258.887 69.873 259.251 71.07 259.41 72.4185ZM270.734 87.8844C268.968 87.8844 267.442 87.5094 266.154 86.7594C264.874 86.0018 263.885 84.9488 263.188 83.6003C262.491 82.2442 262.143 80.6723 262.143 78.8844C262.143 77.0814 262.491 75.5056 263.188 74.1571C263.885 72.801 264.874 71.748 266.154 70.998C267.442 70.2404 268.968 69.8617 270.734 69.8617C272.499 69.8617 274.022 70.2404 275.302 70.998C276.59 71.748 277.582 72.801 278.279 74.1571C278.976 75.5056 279.325 77.0814 279.325 78.8844C279.325 80.6723 278.976 82.2442 278.279 83.6003C277.582 84.9488 276.59 86.0018 275.302 86.7594C274.022 87.5094 272.499 87.8844 270.734 87.8844ZM270.756 84.1344C271.559 84.1344 272.23 83.9071 272.768 83.4526C273.306 82.9904 273.711 82.3617 273.984 81.5662C274.264 80.7707 274.404 79.8654 274.404 78.8503C274.404 77.8351 274.264 76.9298 273.984 76.1344C273.711 75.3389 273.306 74.7101 272.768 74.248C272.23 73.7859 271.559 73.5548 270.756 73.5548C269.946 73.5548 269.264 73.7859 268.711 74.248C268.165 74.7101 267.753 75.3389 267.472 76.1344C267.2 76.9298 267.063 77.8351 267.063 78.8503C267.063 79.8654 267.2 80.7707 267.472 81.5662C267.753 82.3617 268.165 82.9904 268.711 83.4526C269.264 83.9071 269.946 84.1344 270.756 84.1344ZM296.995 75.0662L292.563 75.3389C292.487 74.9601 292.325 74.6192 292.075 74.3162C291.825 74.0056 291.495 73.7594 291.086 73.5776C290.684 73.3882 290.203 73.2935 289.643 73.2935C288.893 73.2935 288.26 73.4526 287.745 73.7707C287.23 74.0814 286.972 74.498 286.972 75.0207C286.972 75.4374 287.139 75.7897 287.472 76.0776C287.806 76.3654 288.378 76.5965 289.188 76.7707L292.347 77.4071C294.044 77.7556 295.309 78.3162 296.143 79.0889C296.976 79.8617 297.393 80.8768 297.393 82.1344C297.393 83.2783 297.056 84.2821 296.381 85.1457C295.715 86.0094 294.798 86.6836 293.631 87.1685C292.472 87.6457 291.135 87.8844 289.62 87.8844C287.309 87.8844 285.468 87.4033 284.097 86.4412C282.734 85.4715 281.934 84.1533 281.7 82.4867L286.461 82.2367C286.605 82.9412 286.953 83.4791 287.506 83.8503C288.059 84.2139 288.768 84.3957 289.631 84.3957C290.48 84.3957 291.162 84.2329 291.677 83.9071C292.2 83.5738 292.465 83.1457 292.472 82.623C292.465 82.1836 292.279 81.8238 291.915 81.5435C291.552 81.2556 290.991 81.0359 290.234 80.8844L287.211 80.2821C285.506 79.9412 284.237 79.3503 283.404 78.5094C282.578 77.6685 282.165 76.5965 282.165 75.2935C282.165 74.1723 282.468 73.2064 283.075 72.3957C283.688 71.5851 284.548 70.9601 285.654 70.5207C286.768 70.0814 288.071 69.8617 289.563 69.8617C291.768 69.8617 293.503 70.3276 294.768 71.2594C296.04 72.1912 296.783 73.4601 296.995 75.0662ZM309.725 70.0889V73.7253H299.214V70.0889H309.725ZM301.6 65.9071H306.441V82.1798C306.441 82.6268 306.509 82.9753 306.646 83.2253C306.782 83.4677 306.971 83.6382 307.214 83.7367C307.464 83.8351 307.752 83.8844 308.077 83.8844C308.305 83.8844 308.532 83.8654 308.759 83.8276C308.986 83.7821 309.161 83.748 309.282 83.7253L310.043 87.3276C309.801 87.4033 309.46 87.4904 309.021 87.5889C308.581 87.695 308.047 87.7594 307.418 87.7821C306.252 87.8276 305.229 87.6723 304.35 87.3162C303.479 86.9601 302.801 86.4071 302.316 85.6571C301.831 84.9071 301.593 83.9601 301.6 82.8162V65.9071Z" fill="#1F2937"/>
<path d="M160.707 101.449H163.361L166.165 108.29H166.285L169.089 101.449H171.744V111.63H169.656V105.003H169.571L166.936 111.581H165.514L162.879 104.978H162.795V111.63H160.707V101.449ZM182.874 106.54C182.874 107.65 182.663 108.594 182.242 109.373C181.825 110.152 181.255 110.747 180.532 111.158C179.813 111.566 179.004 111.77 178.106 111.77C177.201 111.77 176.389 111.564 175.67 111.153C174.951 110.742 174.382 110.147 173.965 109.368C173.547 108.589 173.338 107.647 173.338 106.54C173.338 105.429 173.547 104.485 173.965 103.706C174.382 102.927 174.951 102.334 175.67 101.926C176.389 101.515 177.201 101.309 178.106 101.309C179.004 101.309 179.813 101.515 180.532 101.926C181.255 102.334 181.825 102.927 182.242 103.706C182.663 104.485 182.874 105.429 182.874 106.54ZM180.691 106.54C180.691 105.82 180.583 105.214 180.368 104.72C180.156 104.226 179.856 103.852 179.468 103.596C179.08 103.341 178.626 103.214 178.106 103.214C177.586 103.214 177.132 103.341 176.744 103.596C176.356 103.852 176.054 104.226 175.839 104.72C175.627 105.214 175.521 105.82 175.521 106.54C175.521 107.259 175.627 107.865 175.839 108.359C176.054 108.853 176.356 109.227 176.744 109.483C177.132 109.738 177.586 109.866 178.106 109.866C178.626 109.866 179.08 109.738 179.468 109.483C179.856 109.227 180.156 108.853 180.368 108.359C180.583 107.865 180.691 107.259 180.691 106.54ZM192.985 101.449V111.63H191.125L186.696 105.222H186.621V111.63H184.468V101.449H186.358L190.752 107.852H190.842V101.449H192.985ZM196.916 101.449V111.63H194.763V101.449H196.916ZM198.299 103.223V101.449H206.662V103.223H203.544V111.63H201.417V103.223H198.299ZM216.93 106.54C216.93 107.65 216.72 108.594 216.299 109.373C215.881 110.152 215.311 110.747 214.589 111.158C213.87 111.566 213.061 111.77 212.163 111.77C211.258 111.77 210.446 111.564 209.727 111.153C209.007 110.742 208.439 110.147 208.021 109.368C207.604 108.589 207.395 107.647 207.395 106.54C207.395 105.429 207.604 104.485 208.021 103.706C208.439 102.927 209.007 102.334 209.727 101.926C210.446 101.515 211.258 101.309 212.163 101.309C213.061 101.309 213.87 101.515 214.589 101.926C215.311 102.334 215.881 102.927 216.299 103.706C216.72 104.485 216.93 105.429 216.93 106.54ZM214.748 106.54C214.748 105.82 214.64 105.214 214.425 104.72C214.213 104.226 213.913 103.852 213.525 103.596C213.137 103.341 212.683 103.214 212.163 103.214C211.642 103.214 211.188 103.341 210.8 103.596C210.413 103.852 210.111 104.226 209.896 104.72C209.683 105.214 209.577 105.82 209.577 106.54C209.577 107.259 209.683 107.865 209.896 108.359C210.111 108.853 210.413 109.227 210.8 109.483C211.188 109.738 211.642 109.866 212.163 109.866C212.683 109.866 213.137 109.738 213.525 109.483C213.913 109.227 214.213 108.853 214.425 108.359C214.64 107.865 214.748 107.259 214.748 106.54ZM218.525 111.63V101.449H222.542C223.311 101.449 223.967 101.586 224.511 101.861C225.058 102.133 225.474 102.519 225.759 103.02C226.047 103.517 226.191 104.102 226.191 104.775C226.191 105.451 226.045 106.032 225.754 106.52C225.462 107.004 225.039 107.375 224.486 107.633C223.936 107.892 223.27 108.021 222.487 108.021H219.798V106.291H222.139C222.55 106.291 222.892 106.235 223.164 106.122C223.435 106.009 223.637 105.84 223.77 105.615C223.906 105.389 223.974 105.109 223.974 104.775C223.974 104.437 223.906 104.152 223.77 103.919C223.637 103.687 223.434 103.512 223.159 103.393C222.887 103.27 222.544 103.209 222.129 103.209H220.678V111.63H218.525ZM224.024 106.997L226.554 111.63H224.178L221.702 106.997H224.024Z" fill="#6B7280"/>
</g>
<g filter="url(#filter9_f_3_9)">
<ellipse cx="101" cy="180.256" rx="25" ry="23.2558" fill="url(#paint1_linear_3_9)"/>
</g>
<ellipse cx="101" cy="180.256" rx="25" ry="23.2558" fill="url(#paint2_linear_3_9)"/>
<path d="M103.707 183.544L110.884 190.721" stroke="white" stroke-width="2" stroke-linecap="round" stroke-linejoin="round"/>
<path d="M110.884 184.907V190.721H105.07" stroke="white" stroke-width="2" stroke-linecap="round" stroke-linejoin="round"/>
<path d="M110.884 169.791L100.419 180.256L95.7674 175.605L88.7907 182.581" stroke="white" stroke-width="2" stroke-linecap="round" stroke-linejoin="round"/>
<path d="M110.884 175.605V169.791H105.07" stroke="white" stroke-width="2" stroke-linecap="round" stroke-linejoin="round"/>
<g filter="url(#filter10_f_3_9)">
<ellipse cx="401" cy="180.255" rx="25" ry="23.255" fill="url(#paint3_linear_3_9)"/>
</g>
<ellipse cx="401" cy="180.255" rx="25" ry="23.255" fill="url(#paint4_linear_3_9)"/>
<path d="M414.292 174.066C414.292 173.704 414.011 173.41 413.665 173.41C413.319 173.41 413.039 173.704 413.039 174.066C413.039 175.697 411.769 177.026 410.21 177.026C408.705 177.026 407.477 175.789 407.389 174.237V174.22C407.389 174.203 407.384 174.18 407.384 174.163C407.384 174.132 407.38 174.102 407.38 174.068C407.38 172.436 408.649 171.107 410.208 171.107C410.567 171.107 410.915 171.177 411.245 171.312C411.566 171.447 411.93 171.282 412.059 170.94C412.185 170.603 412.03 170.222 411.703 170.087C411.227 169.891 410.726 169.79 410.208 169.79C408.124 169.79 406.397 171.439 406.159 173.555C405.194 173.56 404.412 174.382 404.412 175.388V176.406H401.479C400.242 176.406 399.239 177.46 399.239 178.75V179.31H396.389C395.111 179.31 394.07 180.398 394.07 181.737V182.1H390.732C389.628 182.1 388.731 183.039 388.731 184.194V188.225H387.092C386.746 188.225 386.465 188.519 386.465 188.881C386.465 189.243 386.746 189.537 387.092 189.537H405.032H405.045H410.215H410.228H412.652C412.998 189.537 413.279 189.243 413.279 188.881C413.279 188.519 412.998 188.225 412.652 188.225H410.843L410.842 178.277C412.792 177.962 414.292 176.194 414.292 174.066ZM389.981 184.197C389.981 183.765 390.316 183.415 390.729 183.415H394.067V188.23H389.979L389.981 184.197ZM395.327 182.759V181.741C395.327 181.124 395.807 180.625 396.393 180.625H399.242V188.23H395.323L395.322 182.759L395.327 182.759ZM400.494 188.229V178.753C400.494 178.184 400.937 177.721 401.48 177.721H404.41V188.225H400.494V188.229ZM405.669 188.229V175.395C405.669 175.106 405.894 174.87 406.17 174.87H406.207C406.529 176.628 407.887 178.002 409.583 178.277V188.23L405.669 188.229Z" fill="white"/>
<path d="M415.355 169.985C415.113 169.727 414.715 169.727 414.469 169.98L410.194 174.428L408.857 173.147C408.602 172.903 408.206 172.92 407.971 173.186C407.737 173.453 407.754 173.868 408.008 174.114L409.784 175.818C409.905 175.933 410.055 175.993 410.207 175.993C410.365 175.993 410.528 175.928 410.649 175.8L415.345 170.914C415.596 170.658 415.596 170.243 415.355 169.985Z" fill="white"/>
<g filter="url(#filter11_f_3_9)">
<ellipse cx="701" cy="180.255" rx="25" ry="23.255" fill="url(#paint5_linear_3_9)"/>
</g>
<ellipse cx="701" cy="180.255" rx="25" ry="23.255" fill="url(#paint6_linear_3_9)"/>
<path fill-rule="evenodd" clip-rule="evenodd" d="M713.095 177.08V177.082L713.099 177.093L713.103 177.107L713.105 177.113L713.329 177.96C713.383 178.167 713.3 178.381 713.136 178.498V181.779L714.927 181.293C714.957 181.285 714.984 181.263 715 181.238C715.012 181.218 715.015 181.197 715.012 181.177L711.812 169.064C711.808 169.044 711.793 169.028 711.773 169.019C711.748 169.005 711.715 168.999 711.683 169.009L687.594 175.556C687.561 175.563 687.536 175.583 687.521 175.608C687.509 175.628 687.505 175.65 687.509 175.669L687.669 176.279H690.962C690.954 176.153 690.934 176.022 690.898 175.889C690.83 175.62 690.987 175.346 691.249 175.275L708.377 170.62C708.64 170.549 708.91 170.708 708.982 170.974C709.119 171.496 709.451 171.909 709.874 172.158H709.876C710.301 172.405 710.821 172.491 711.335 172.35C711.598 172.279 711.868 172.438 711.94 172.705L713.095 177.08ZM691.951 176.278L691.949 176.243L691.941 176.125L708.197 171.709C708.454 172.273 708.873 172.728 709.383 173.026C709.893 173.323 710.492 173.466 711.103 173.41L711.86 176.278H704.687C704.254 175.567 703.62 175.016 702.886 174.687C702.074 174.323 701.141 174.229 700.218 174.479C699.659 174.63 699.159 174.895 698.736 175.242C698.377 175.536 698.073 175.886 697.836 176.278L691.951 176.278ZM699.076 176.278C699.163 176.188 699.256 176.102 699.354 176.022C699.673 175.761 700.05 175.563 700.473 175.447C701.17 175.259 701.875 175.33 702.488 175.604C702.845 175.765 703.17 175.992 703.444 176.278L699.076 176.278ZM713.134 182.815V189.909C713.134 190.21 713.006 190.487 712.803 190.685C712.604 190.879 712.332 190.998 712.034 190.998L699.567 190.999L687.099 191C686.802 191 686.529 190.879 686.33 190.686C686.128 190.489 686 190.212 686 189.911V177.368C686 177.066 686.128 176.79 686.33 176.592C686.429 176.498 686.543 176.419 686.67 176.364L686.554 175.926C686.477 175.632 686.529 175.334 686.674 175.089C686.817 174.85 687.049 174.664 687.339 174.583L711.426 168.039C711.713 167.96 712.007 168.005 712.247 168.138C712.494 168.276 712.687 168.509 712.764 168.803L715.964 180.916C716.041 181.21 715.991 181.508 715.844 181.753C715.701 181.992 715.469 182.18 715.18 182.258L713.134 182.815ZM699.567 177.969H708.433C708.705 177.969 708.928 178.195 708.928 178.471L708.926 178.51C708.935 179.031 709.15 179.504 709.49 179.848C709.838 180.201 710.317 180.419 710.848 180.419C711.12 180.419 711.343 180.642 711.343 180.92L711.341 180.963V186.356C711.341 186.632 711.12 186.856 710.848 186.856V186.858C710.317 186.858 709.836 187.075 709.49 187.426C709.142 187.78 708.926 188.268 708.926 188.803C708.926 189.08 708.705 189.303 708.433 189.303L690.701 189.307C690.428 189.307 690.208 189.084 690.208 188.807C690.208 188.27 689.992 187.784 689.644 187.43C689.296 187.077 688.817 186.86 688.286 186.86C688.013 186.86 687.791 186.634 687.791 186.358L687.793 186.313V180.92C687.793 180.644 688.013 180.421 688.286 180.421V180.419C688.817 180.419 689.298 180.201 689.644 179.848C689.992 179.494 690.208 179.006 690.208 178.471C690.208 178.195 690.428 177.971 690.701 177.971V177.969L699.567 177.969ZM707.983 178.973C708.087 179.588 708.377 180.137 708.791 180.558C709.208 180.981 709.749 181.275 710.356 181.381V185.899C709.751 186.005 709.21 186.299 708.792 186.722H708.791C708.375 187.144 708.085 187.694 707.981 188.31L691.153 188.308C691.049 187.692 690.759 187.142 690.344 186.72C689.926 186.297 689.385 186.003 688.779 185.897V181.379C689.383 181.273 689.924 180.979 690.342 180.556H690.344C690.759 180.135 691.049 179.586 691.151 178.971L707.983 178.973ZM706.605 182.223C706.219 182.223 705.871 182.382 705.618 182.639C705.365 182.894 705.209 183.248 705.209 183.638C705.209 184.03 705.365 184.383 705.618 184.639C705.871 184.896 706.221 185.055 706.605 185.055C706.974 185.055 707.311 184.908 707.56 184.671L707.593 184.641C707.846 184.385 708.002 184.03 708.002 183.64C708.002 183.248 707.846 182.895 707.593 182.639H707.591C707.338 182.38 706.99 182.223 706.605 182.223ZM706.893 183.346C706.82 183.272 706.719 183.225 706.605 183.225C706.493 183.225 706.391 183.272 706.318 183.346C706.244 183.421 706.198 183.524 706.198 183.638C706.198 183.752 706.244 183.856 706.318 183.93C706.391 184.005 706.493 184.052 706.605 184.052C706.71 184.052 706.806 184.012 706.878 183.948L706.893 183.93C706.967 183.856 707.013 183.752 707.013 183.638C707.013 183.524 706.967 183.421 706.893 183.346ZM692.531 182.223C692.161 182.223 691.825 182.368 691.576 182.607L691.543 182.639C691.29 182.895 691.134 183.25 691.134 183.64C691.134 184.032 691.29 184.385 691.543 184.641H691.545C691.798 184.898 692.146 185.057 692.531 185.057C692.917 185.057 693.265 184.898 693.518 184.641C693.771 184.385 693.927 184.03 693.927 183.64C693.927 183.248 693.771 182.895 693.518 182.639C693.265 182.382 692.915 182.223 692.531 182.223ZM692.818 183.346C692.745 183.272 692.643 183.225 692.531 183.225C692.426 183.225 692.33 183.264 692.258 183.329L692.243 183.346C692.169 183.421 692.123 183.524 692.123 183.638C692.123 183.752 692.169 183.856 692.243 183.93C692.316 184.005 692.417 184.052 692.531 184.052C692.643 184.052 692.745 184.005 692.818 183.93C692.892 183.856 692.938 183.752 692.938 183.638C692.936 183.524 692.892 183.421 692.818 183.346ZM699.567 179.555C700.68 179.555 701.687 180.013 702.415 180.752L702.442 180.781C703.155 181.518 703.596 182.527 703.596 183.64C703.596 184.769 703.145 185.79 702.417 186.528C701.689 187.267 700.682 187.724 699.569 187.724C698.456 187.724 697.45 187.267 696.721 186.528C695.993 185.79 695.543 184.769 695.543 183.64C695.543 182.513 695.993 181.493 696.721 180.754V180.752C697.448 180.011 698.456 179.555 699.567 179.555ZM701.716 181.459L701.739 181.481C702.274 182.037 702.604 182.798 702.604 183.638C702.604 184.489 702.264 185.261 701.716 185.817C701.167 186.374 700.406 186.719 699.567 186.719C698.729 186.719 697.967 186.374 697.419 185.817C696.87 185.261 696.53 184.489 696.53 183.638C696.53 182.786 696.87 182.016 697.419 181.459C697.969 180.903 698.729 180.556 699.567 180.556C700.408 180.558 701.167 180.903 701.716 181.459ZM699.073 181.479C699.073 181.201 699.295 180.977 699.567 180.977C699.842 180.977 700.062 181.203 700.062 181.479V181.655C700.301 181.761 700.526 181.945 700.707 182.229C700.856 182.46 700.79 182.77 700.562 182.921C700.334 183.072 700.029 183.005 699.88 182.774C699.766 182.596 699.619 182.535 699.494 182.551C699.449 182.556 699.403 182.574 699.361 182.598C699.324 182.621 699.291 182.649 699.27 182.678C699.233 182.729 699.227 182.803 699.275 182.886C699.322 182.966 699.55 183.076 699.778 183.185C700.143 183.362 700.508 183.536 700.711 183.885C701.009 184.398 700.916 184.875 700.634 185.227C700.524 185.366 700.381 185.482 700.22 185.568C700.17 185.596 700.116 185.621 700.062 185.643V185.799C700.062 186.076 699.842 186.301 699.567 186.301C699.295 186.301 699.073 186.076 699.073 185.799V185.666C698.821 185.572 698.599 185.39 698.447 185.104C698.317 184.861 698.408 184.557 698.648 184.426C698.887 184.295 699.187 184.387 699.316 184.63C699.357 184.706 699.436 184.741 699.523 184.743C699.538 184.743 699.552 184.741 699.567 184.741H699.579L699.583 184.743L699.59 184.741C699.65 184.733 699.706 184.714 699.757 184.686C699.801 184.663 699.84 184.632 699.869 184.596C699.905 184.549 699.911 184.479 699.861 184.391C699.815 184.31 699.587 184.2 699.359 184.091C698.993 183.916 698.628 183.74 698.427 183.391C698.153 182.917 698.219 182.447 698.468 182.094C698.572 181.947 698.708 181.824 698.864 181.73C698.93 181.69 699.001 181.657 699.075 181.63L699.073 181.479ZM712.122 177.313C712.137 177.329 712.147 177.348 712.147 177.368V189.909C712.147 189.928 712.137 189.948 712.122 189.963C712.102 189.983 712.071 189.995 712.037 189.995H699.568H687.1C687.065 189.995 687.034 189.983 687.015 189.963C686.999 189.948 686.99 189.928 686.99 189.909V177.368C686.99 177.348 686.999 177.329 687.015 177.313C687.034 177.293 687.065 177.282 687.1 177.282H712.037C712.071 177.282 712.1 177.293 712.122 177.313Z" fill="white"/>
<g filter="url(#filter12_f_3_9)">
<ellipse cx="1021" cy="180.255" rx="25" ry="23.255" fill="url(#paint7_linear_3_9)"/>
</g>
<ellipse cx="1021" cy="180.255" rx="25" ry="23.255" fill="url(#paint8_linear_3_9)"/>
<path d="M1022.27 169.2C1021.99 168.762 1021.52 168.5 1021 168.5C1020.48 168.5 1020.01 168.761 1019.73 169.198L1007.73 188.198C1007.44 188.661 1007.42 189.245 1007.69 189.723C1007.95 190.202 1008.46 190.5 1009 190.5H1033C1033.55 190.5 1034.05 190.202 1034.32 189.725C1034.58 189.246 1034.56 188.661 1034.27 188.2L1022.27 169.2ZM1033.44 189.242C1033.35 189.401 1033.19 189.501 1033 189.501L1009 189.5C1008.82 189.5 1008.65 189.4 1008.56 189.241C1008.48 189.082 1008.48 188.886 1008.58 188.732L1020.58 169.732C1020.67 169.587 1020.83 169.5 1021 169.5C1021.17 169.5 1021.33 169.587 1021.42 169.732L1033.42 188.732C1033.52 188.886 1033.53 189.081 1033.44 189.241L1033.44 189.242Z" fill="white"/>
<path d="M1036.38 186.864L1024.38 167.865C1023.65 166.698 1022.38 166 1021 166C1019.62 166 1018.36 166.698 1017.62 167.864L1005.62 186.864C1004.84 188.096 1004.79 189.654 1005.5 190.93C1006.2 192.206 1007.54 193 1009 193H1033C1034.46 193 1035.8 192.207 1036.5 190.931C1037.21 189.655 1037.16 188.096 1036.38 186.865L1036.38 186.864ZM1035.63 190.449C1035.1 191.406 1034.09 192.001 1033 192.001L1009 192C1007.91 192 1006.9 191.405 1006.37 190.447C1005.85 189.49 1005.88 188.321 1006.46 187.397L1018.46 168.397C1019.02 167.522 1019.96 167 1021 167C1022.04 167 1022.98 167.522 1023.54 168.397L1035.54 187.397C1036.12 188.322 1036.16 189.49 1035.63 190.447L1035.63 190.449Z" fill="white"/>
<path d="M1021 184C1020.17 184 1019.5 184.672 1019.5 185.5C1019.5 186.327 1020.17 187 1021 187C1021.83 187 1022.5 186.327 1022.5 185.5C1022.5 184.672 1021.83 184 1021 184ZM1021 186C1020.73 186 1020.5 185.775 1020.5 185.5C1020.5 185.223 1020.73 185 1021 185C1021.28 185 1021.5 185.225 1021.5 185.5C1021.5 185.776 1021.28 186 1021 186Z" fill="white"/>
<path d="M1021 176C1019.9 176 1019 176.897 1019 178C1019 179.585 1020.48 183.05 1020.54 183.197C1020.62 183.381 1020.8 183.5 1021 183.5C1021.2 183.5 1021.38 183.38 1021.46 183.197C1021.52 183.05 1023 179.585 1023 178C1023 176.897 1022.1 176 1021 176ZM1021 181.656C1020.54 180.451 1020 178.822 1020 178C1020 177.448 1020.45 177 1021 177C1021.55 177 1022 177.448 1022 178C1022 178.822 1021.46 180.451 1021 181.656Z" fill="white"/>
<path d="M401.011 64V52.3636H408.716V54.392H403.472V57.1648H408.205V59.1932H403.472V64H401.011ZM410.325 64V55.2727H412.746V64H410.325ZM411.541 54.1477C411.181 54.1477 410.873 54.0284 410.615 53.7898C410.361 53.5473 410.234 53.2576 410.234 52.9205C410.234 52.5871 410.361 52.3011 410.615 52.0625C410.873 51.8201 411.181 51.6989 411.541 51.6989C411.901 51.6989 412.208 51.8201 412.462 52.0625C412.719 52.3011 412.848 52.5871 412.848 52.9205C412.848 53.2576 412.719 53.5473 412.462 53.7898C412.208 54.0284 411.901 54.1477 411.541 54.1477ZM417.105 52.3636V64H414.685V52.3636H417.105ZM423.686 55.2727V57.0909H418.43V55.2727H423.686ZM419.624 53.1818H422.044V61.3182C422.044 61.5417 422.078 61.7159 422.146 61.8409C422.214 61.9621 422.309 62.0473 422.43 62.0966C422.555 62.1458 422.699 62.1705 422.862 62.1705C422.976 62.1705 423.089 62.161 423.203 62.142C423.317 62.1193 423.404 62.1023 423.464 62.0909L423.845 63.892C423.724 63.9299 423.554 63.9735 423.334 64.0227C423.114 64.0758 422.847 64.108 422.533 64.1193C421.949 64.142 421.438 64.0644 420.999 63.8864C420.563 63.7083 420.224 63.4318 419.982 63.0568C419.739 62.6818 419.62 62.2083 419.624 61.6364V53.1818ZM425.263 64V55.2727H427.609V56.7955H427.7C427.859 56.2538 428.126 55.8447 428.501 55.5682C428.876 55.2879 429.308 55.1477 429.797 55.1477C429.918 55.1477 430.049 55.1553 430.189 55.1705C430.329 55.1856 430.452 55.2064 430.558 55.233V57.3807C430.445 57.3466 430.287 57.3163 430.087 57.2898C429.886 57.2633 429.702 57.25 429.536 57.25C429.179 57.25 428.861 57.3277 428.581 57.483C428.304 57.6345 428.085 57.8466 427.922 58.1193C427.763 58.392 427.683 58.7064 427.683 59.0625V64H425.263ZM435.347 64.1705C434.464 64.1705 433.701 63.983 433.057 63.608C432.417 63.2292 431.922 62.7027 431.574 62.0284C431.225 61.3504 431.051 60.5644 431.051 59.6705C431.051 58.7689 431.225 57.9811 431.574 57.3068C431.922 56.6288 432.417 56.1023 433.057 55.7273C433.701 55.3485 434.464 55.1591 435.347 55.1591C436.229 55.1591 436.991 55.3485 437.631 55.7273C438.275 56.1023 438.771 56.6288 439.119 57.3068C439.468 57.9811 439.642 58.7689 439.642 59.6705C439.642 60.5644 439.468 61.3504 439.119 62.0284C438.771 62.7027 438.275 63.2292 437.631 63.608C436.991 63.983 436.229 64.1705 435.347 64.1705ZM435.358 62.2955C435.759 62.2955 436.095 62.1818 436.364 61.9545C436.633 61.7235 436.835 61.4091 436.972 61.0114C437.112 60.6136 437.182 60.161 437.182 59.6534C437.182 59.1458 437.112 58.6932 436.972 58.2955C436.835 57.8977 436.633 57.5833 436.364 57.3523C436.095 57.1212 435.759 57.0057 435.358 57.0057C434.953 57.0057 434.612 57.1212 434.335 57.3523C434.063 57.5833 433.856 57.8977 433.716 58.2955C433.58 58.6932 433.511 59.1458 433.511 59.6534C433.511 60.161 433.58 60.6136 433.716 61.0114C433.856 61.4091 434.063 61.7235 434.335 61.9545C434.612 62.1818 434.953 62.2955 435.358 62.2955ZM448.477 57.7614L446.261 57.8977C446.223 57.7083 446.142 57.5379 446.017 57.3864C445.892 57.2311 445.727 57.108 445.523 57.017C445.322 56.9223 445.081 56.875 444.801 56.875C444.426 56.875 444.11 56.9545 443.852 57.1136C443.595 57.2689 443.466 57.4773 443.466 57.7386C443.466 57.947 443.549 58.1231 443.716 58.267C443.883 58.411 444.169 58.5265 444.574 58.6136L446.153 58.9318C447.002 59.1061 447.634 59.3864 448.051 59.7727C448.468 60.1591 448.676 60.6667 448.676 61.2955C448.676 61.8674 448.508 62.3693 448.17 62.8011C447.837 63.233 447.379 63.5701 446.795 63.8125C446.216 64.0511 445.547 64.1705 444.79 64.1705C443.634 64.1705 442.714 63.9299 442.028 63.4489C441.347 62.964 440.947 62.3049 440.83 61.4716L443.21 61.3466C443.282 61.6989 443.456 61.9678 443.733 62.1534C444.009 62.3352 444.364 62.4261 444.795 62.4261C445.22 62.4261 445.561 62.3447 445.818 62.1818C446.08 62.0152 446.212 61.8011 446.216 61.5398C446.212 61.3201 446.119 61.1402 445.938 61C445.756 60.8561 445.475 60.7462 445.097 60.6705L443.585 60.3693C442.733 60.1989 442.098 59.9034 441.682 59.483C441.269 59.0625 441.062 58.5265 441.062 57.875C441.062 57.3144 441.214 56.8314 441.517 56.4261C441.824 56.0208 442.254 55.7083 442.807 55.4886C443.364 55.2689 444.015 55.1591 444.761 55.1591C445.864 55.1591 446.731 55.392 447.364 55.858C448 56.3239 448.371 56.9583 448.477 57.7614Z" fill="#1F2937"/>
<path d="M1182.29 67.7489C1181.04 67.749 1180 68.8838 1180 70.2499V75.9995C1180 77.1971 1180.55 78.3161 1181.46 78.9804L1187.13 83.0964C1187.41 83.2986 1187.57 83.6363 1187.57 84.0008V93.7556C1187.57 93.953 1187.61 94.1473 1187.7 94.3227C1187.78 94.4981 1187.9 94.6497 1188.05 94.7649C1188.19 94.8801 1188.36 94.9558 1188.54 94.9857C1188.72 95.0156 1188.9 94.9989 1189.08 94.9369L1196.65 92.1867C1196.88 92.103 1197.08 91.9441 1197.22 91.7323C1197.36 91.5205 1197.43 91.2663 1197.43 91.0055V84.0008C1197.43 83.6363 1197.6 83.2986 1197.88 83.0964L1203.54 78.9804C1204.45 78.3161 1205 77.1971 1205 75.9995V70.2499C1205 68.8838 1203.96 67.749 1202.71 67.7489H1198.81C1198.66 67.7483 1198.51 67.78 1198.37 67.8423C1198.23 67.9045 1198.11 67.9961 1198 68.1118C1197.89 68.2275 1197.81 68.3651 1197.75 68.5166C1197.69 68.6681 1197.66 68.8306 1197.66 68.9948C1197.66 69.1598 1197.69 69.3233 1197.75 69.4759C1197.8 69.6285 1197.89 69.7671 1198 69.8838C1198.1 70.0005 1198.23 70.0929 1198.37 70.1557C1198.51 70.2186 1198.66 70.2506 1198.81 70.2499H1202.71V75.9995C1202.71 76.364 1202.54 76.7017 1202.27 76.9039L1196.6 81.0199C1195.69 81.6842 1195.14 82.8032 1195.14 84.0008V90.101L1189.86 92.0206V84.0008C1189.86 82.8032 1189.31 81.6842 1188.4 81.0199L1182.73 76.9039C1182.46 76.7017 1182.29 76.364 1182.29 75.9995V70.2499H1186.2C1186.35 70.2494 1186.5 70.2165 1186.64 70.1531C1186.77 70.0897 1186.9 69.9971 1187.01 69.8805C1187.11 69.764 1187.2 69.6258 1187.25 69.4738C1187.31 69.3218 1187.34 69.1591 1187.34 68.9948C1187.34 68.6647 1187.22 68.3485 1187 68.1151C1186.79 67.8817 1186.5 67.7501 1186.2 67.7489H1182.29Z" fill="black"/>
<path d="M1194.21 65.3681L1189.17 70.8685C1188.96 71.1027 1188.84 71.4196 1188.84 71.7498C1188.84 72.0801 1188.96 72.3969 1189.17 72.6312C1189.38 72.864 1189.67 72.9947 1189.98 72.9947C1190.28 72.9947 1190.57 72.864 1190.79 72.6312L1195.84 67.1308C1196.05 66.8966 1196.17 66.5797 1196.17 66.2495C1196.17 65.9192 1196.05 65.6024 1195.84 65.3681C1195.73 65.2514 1195.61 65.1589 1195.47 65.0957C1195.33 65.0325 1195.18 65 1195.03 65C1194.88 65 1194.73 65.0325 1194.59 65.0957C1194.45 65.1589 1194.32 65.2514 1194.21 65.3681Z" fill="black"/>
<path d="M1189.17 65.3681C1188.96 65.6024 1188.84 65.9192 1188.84 66.2495C1188.84 66.5798 1188.96 66.8966 1189.17 67.1308L1194.21 72.6312C1194.32 72.7479 1194.45 72.8405 1194.59 72.9036C1194.73 72.9668 1194.88 72.9993 1195.03 72.9993C1195.18 72.9993 1195.33 72.9668 1195.47 72.9036C1195.61 72.8405 1195.73 72.7479 1195.84 72.6312C1196.05 72.397 1196.17 72.0801 1196.17 71.7498C1196.17 71.4196 1196.05 71.1027 1195.84 70.8685L1190.79 65.3681C1190.57 65.1353 1190.28 65.0046 1189.98 65.0046C1189.67 65.0046 1189.38 65.1353 1189.17 65.3681Z" fill="black"/>
</g>
<defs>
<filter id="filter0_d_3_9" x="19" y="19" width="1247" height="689" filterUnits="userSpaceOnUse" color-interpolation-filters="sRGB">
<feFlood flood-opacity="0" result="BackgroundImageFix"/>
<feColorMatrix in="SourceAlpha" type="matrix" values="0 0 0 0 0 0 0 0 0 0 0 0 0 0 0 0 0 0 127 0" result="hardAlpha"/>
<feMorphology radius="1" operator="dilate" in="SourceAlpha" result="effect1_dropShadow_3_9"/>
<feOffset dx="4" dy="4"/>
<feGaussianBlur stdDeviation="2"/>
<feComposite in2="hardAlpha" operator="out"/>
<feColorMatrix type="matrix" values="0 0 0 0 0 0 0 0 0 0 0 0 0 0 0 0 0 0 0.4 0"/>
<feBlend mode="normal" in2="BackgroundImageFix" result="effect1_dropShadow_3_9"/>
<feBlend mode="normal" in="SourceGraphic" in2="effect1_dropShadow_3_9" result="shape"/>
</filter>
<filter id="filter1_d_3_9" x="59" y="139" width="248" height="90" filterUnits="userSpaceOnUse" color-interpolation-filters="sRGB">
<feFlood flood-opacity="0" result="BackgroundImageFix"/>
<feColorMatrix in="SourceAlpha" type="matrix" values="0 0 0 0 0 0 0 0 0 0 0 0 0 0 0 0 0 0 127 0" result="hardAlpha"/>
<feMorphology radius="1" operator="dilate" in="SourceAlpha" result="effect1_dropShadow_3_9"/>
<feOffset dx="4" dy="4"/>
<feGaussianBlur stdDeviation="2"/>
<feComposite in2="hardAlpha" operator="out"/>
<feColorMatrix type="matrix" values="0 0 0 0 0 0 0 0 0 0 0 0 0 0 0 0 0 0 0.3 0"/>
<feBlend mode="normal" in2="BackgroundImageFix" result="effect1_dropShadow_3_9"/>
<feBlend mode="normal" in="SourceGraphic" in2="effect1_dropShadow_3_9" result="shape"/>
</filter>
<filter id="filter2_d_3_9" x="59" y="239" width="570" height="190" filterUnits="userSpaceOnUse" color-interpolation-filters="sRGB">
<feFlood flood-opacity="0" result="BackgroundImageFix"/>
<feColorMatrix in="SourceAlpha" type="matrix" values="0 0 0 0 0 0 0 0 0 0 0 0 0 0 0 0 0 0 127 0" result="hardAlpha"/>
<feMorphology radius="1" operator="dilate" in="SourceAlpha" result="effect1_dropShadow_3_9"/>
<feOffset dx="4" dy="4"/>
<feGaussianBlur stdDeviation="2"/>
<feComposite in2="hardAlpha" operator="out"/>
<feColorMatrix type="matrix" values="0 0 0 0 0 0 0 0 0 0 0 0 0 0 0 0 0 0 0.3 0"/>
<feBlend mode="normal" in2="BackgroundImageFix" result="effect1_dropShadow_3_9"/>
<feBlend mode="normal" in="SourceGraphic" in2="effect1_dropShadow_3_9" result="shape"/>
</filter>
<filter id="filter3_d_3_9" x="59" y="440" width="570" height="250" filterUnits="userSpaceOnUse" color-interpolation-filters="sRGB">
<feFlood flood-opacity="0" result="BackgroundImageFix"/>
<feColorMatrix in="SourceAlpha" type="matrix" values="0 0 0 0 0 0 0 0 0 0 0 0 0 0 0 0 0 0 127 0" result="hardAlpha"/>
<feMorphology radius="1" operator="dilate" in="SourceAlpha" result="effect1_dropShadow_3_9"/>
<feOffset dx="4" dy="4"/>
<feGaussianBlur stdDeviation="2"/>
<feComposite in2="hardAlpha" operator="out"/>
<feColorMatrix type="matrix" values="0 0 0 0 0 0 0 0 0 0 0 0 0 0 0 0 0 0 0.3 0"/>
<feBlend mode="normal" in2="BackgroundImageFix" result="effect1_dropShadow_3_9"/>
<feBlend mode="normal" in="SourceGraphic" in2="effect1_dropShadow_3_9" result="shape"/>
</filter>
<filter id="filter4_d_3_9" x="659" y="440" width="570" height="250" filterUnits="userSpaceOnUse" color-interpolation-filters="sRGB">
<feFlood flood-opacity="0" result="BackgroundImageFix"/>
<feColorMatrix in="SourceAlpha" type="matrix" values="0 0 0 0 0 0 0 0 0 0 0 0 0 0 0 0 0 0 127 0" result="hardAlpha"/>
<feMorphology radius="1" operator="dilate" in="SourceAlpha" result="effect1_dropShadow_3_9"/>
<feOffset dx="4" dy="4"/>
<feGaussianBlur stdDeviation="2"/>
<feComposite in2="hardAlpha" operator="out"/>
<feColorMatrix type="matrix" values="0 0 0 0 0 0 0 0 0 0 0 0 0 0 0 0 0 0 0.3 0"/>
<feBlend mode="normal" in2="BackgroundImageFix" result="effect1_dropShadow_3_9"/>
<feBlend mode="normal" in="SourceGraphic" in2="effect1_dropShadow_3_9" result="shape"/>
</filter>
<filter id="filter5_d_3_9" x="659" y="239" width="570" height="190" filterUnits="userSpaceOnUse" color-interpolation-filters="sRGB">
<feFlood flood-opacity="0" result="BackgroundImageFix"/>
<feColorMatrix in="SourceAlpha" type="matrix" values="0 0 0 0 0 0 0 0 0 0 0 0 0 0 0 0 0 0 127 0" result="hardAlpha"/>
<feMorphology radius="1" operator="dilate" in="SourceAlpha" result="effect1_dropShadow_3_9"/>
<feOffset dx="4" dy="4"/>
<feGaussianBlur stdDeviation="2"/>
<feComposite in2="hardAlpha" operator="out"/>
<feColorMatrix type="matrix" values="0 0 0 0 0 0 0 0 0 0 0 0 0 0 0 0 0 0 0.3 0"/>
<feBlend mode="normal" in2="BackgroundImageFix" result="effect1_dropShadow_3_9"/>
<feBlend mode="normal" in="SourceGraphic" in2="effect1_dropShadow_3_9" result="shape"/>
</filter>
<filter id="filter6_d_3_9" x="659" y="139" width="270" height="90" filterUnits="userSpaceOnUse" color-interpolation-filters="sRGB">
<feFlood flood-opacity="0" result="BackgroundImageFix"/>
<feColorMatrix in="SourceAlpha" type="matrix" values="0 0 0 0 0 0 0 0 0 0 0 0 0 0 0 0 0 0 127 0" result="hardAlpha"/>
<feMorphology radius="1" operator="dilate" in="SourceAlpha" result="effect1_dropShadow_3_9"/>
<feOffset dx="4" dy="4"/>
<feGaussianBlur stdDeviation="2"/>
<feComposite in2="hardAlpha" operator="out"/>
<feColorMatrix type="matrix" values="0 0 0 0 0 0 0 0 0 0 0 0 0 0 0 0 0 0 0.3 0"/>
<feBlend mode="normal" in2="BackgroundImageFix" result="effect1_dropShadow_3_9"/>
<feBlend mode="normal" in="SourceGraphic" in2="effect1_dropShadow_3_9" result="shape"/>
</filter>
<filter id="filter7_d_3_9" x="359" y="139" width="250" height="90" filterUnits="userSpaceOnUse" color-interpolation-filters="sRGB">
<feFlood flood-opacity="0" result="BackgroundImageFix"/>
<feColorMatrix in="SourceAlpha" type="matrix" values="0 0 0 0 0 0 0 0 0 0 0 0 0 0 0 0 0 0 127 0" result="hardAlpha"/>
<feMorphology radius="1" operator="dilate" in="SourceAlpha" result="effect1_dropShadow_3_9"/>
<feOffset dx="4" dy="4"/>
<feGaussianBlur stdDeviation="2"/>
<feComposite in2="hardAlpha" operator="out"/>
<feColorMatrix type="matrix" values="0 0 0 0 0 0 0 0 0 0 0 0 0 0 0 0 0 0 0.3 0"/>
<feBlend mode="normal" in2="BackgroundImageFix" result="effect1_dropShadow_3_9"/>
<feBlend mode="normal" in="SourceGraphic" in2="effect1_dropShadow_3_9" result="shape"/>
</filter>
<filter id="filter8_d_3_9" x="979" y="139" width="250" height="90" filterUnits="userSpaceOnUse" color-interpolation-filters="sRGB">
<feFlood flood-opacity="0" result="BackgroundImageFix"/>
<feColorMatrix in="SourceAlpha" type="matrix" values="0 0 0 0 0 0 0 0 0 0 0 0 0 0 0 0 0 0 127 0" result="hardAlpha"/>
<feMorphology radius="1" operator="dilate" in="SourceAlpha" result="effect1_dropShadow_3_9"/>
<feOffset dx="4" dy="4"/>
<feGaussianBlur stdDeviation="2"/>
<feComposite in2="hardAlpha" operator="out"/>
<feColorMatrix type="matrix" values="0 0 0 0 0 0 0 0 0 0 0 0 0 0 0 0 0 0 0.3 0"/>
<feBlend mode="normal" in2="BackgroundImageFix" result="effect1_dropShadow_3_9"/>
<feBlend mode="normal" in="SourceGraphic" in2="effect1_dropShadow_3_9" result="shape"/>
</filter>
<filter id="filter9_f_3_9" x="72" y="153" width="58" height="54.5116" filterUnits="userSpaceOnUse" color-interpolation-filters="sRGB">
<feFlood flood-opacity="0" result="BackgroundImageFix"/>
<feBlend mode="normal" in="SourceGraphic" in2="BackgroundImageFix" result="shape"/>
<feGaussianBlur stdDeviation="2" result="effect1_foregroundBlur_3_9"/>
</filter>
<filter id="filter10_f_3_9" x="372" y="153" width="58" height="54.51" filterUnits="userSpaceOnUse" color-interpolation-filters="sRGB">
<feFlood flood-opacity="0" result="BackgroundImageFix"/>
<feBlend mode="normal" in="SourceGraphic" in2="BackgroundImageFix" result="shape"/>
<feGaussianBlur stdDeviation="2" result="effect1_foregroundBlur_3_9"/>
</filter>
<filter id="filter11_f_3_9" x="672" y="153" width="58" height="54.51" filterUnits="userSpaceOnUse" color-interpolation-filters="sRGB">
<feFlood flood-opacity="0" result="BackgroundImageFix"/>
<feBlend mode="normal" in="SourceGraphic" in2="BackgroundImageFix" result="shape"/>
<feGaussianBlur stdDeviation="2" result="effect1_foregroundBlur_3_9"/>
</filter>
<filter id="filter12_f_3_9" x="992" y="153" width="58" height="54.51" filterUnits="userSpaceOnUse" color-interpolation-filters="sRGB">
<feFlood flood-opacity="0" result="BackgroundImageFix"/>
<feBlend mode="normal" in="SourceGraphic" in2="BackgroundImageFix" result="shape"/>
<feGaussianBlur stdDeviation="2" result="effect1_foregroundBlur_3_9"/>
</filter>
<linearGradient id="paint0_linear_3_9" x1="61.062" y1="43.8261" x2="143.2" y2="128.44" gradientUnits="userSpaceOnUse">
<stop stop-color="#DC2626"/>
<stop offset="1" stop-color="#F97316"/>
</linearGradient>
<linearGradient id="paint1_linear_3_9" x1="120.186" y1="196.535" x2="86.4651" y2="163.395" gradientUnits="userSpaceOnUse">
<stop stop-color="#E94920"/>
<stop offset="0.942308" stop-color="#D44521"/>
</linearGradient>
<linearGradient id="paint2_linear_3_9" x1="120.186" y1="196.535" x2="86.4651" y2="163.395" gradientUnits="userSpaceOnUse">
<stop stop-color="#E94920"/>
<stop offset="0.942308" stop-color="#D44521"/>
</linearGradient>
<linearGradient id="paint3_linear_3_9" x1="420.186" y1="196.533" x2="386.466" y2="163.394" gradientUnits="userSpaceOnUse">
<stop stop-color="#E94920"/>
<stop offset="0.9375" stop-color="#D44521"/>
</linearGradient>
<linearGradient id="paint4_linear_3_9" x1="420.186" y1="196.533" x2="386.466" y2="163.394" gradientUnits="userSpaceOnUse">
<stop stop-color="#E94920"/>
<stop offset="0.9375" stop-color="#D44521"/>
</linearGradient>
<linearGradient id="paint5_linear_3_9" x1="720.186" y1="196.533" x2="686.466" y2="163.394" gradientUnits="userSpaceOnUse">
<stop stop-color="#E94920"/>
<stop offset="0.9375" stop-color="#D44521"/>
</linearGradient>
<linearGradient id="paint6_linear_3_9" x1="720.186" y1="196.533" x2="686.466" y2="163.394" gradientUnits="userSpaceOnUse">
<stop stop-color="#E94920"/>
<stop offset="0.9375" stop-color="#D44521"/>
</linearGradient>
<linearGradient id="paint7_linear_3_9" x1="1040.19" y1="196.533" x2="1006.47" y2="163.394" gradientUnits="userSpaceOnUse">
<stop stop-color="#E94920"/>
<stop offset="0.9375" stop-color="#D44521"/>
</linearGradient>
<linearGradient id="paint8_linear_3_9" x1="1040.19" y1="196.533" x2="1006.47" y2="163.394" gradientUnits="userSpaceOnUse">
<stop stop-color="#E94920"/>
<stop offset="0.9375" stop-color="#D44521"/>
</linearGradient>
<clipPath id="clip0_3_9">
<rect width="1280" height="720" fill="white"/>
</clipPath>
<clipPath id="clip1_3_9">
<rect width="260" height="90" fill="white" transform="translate(53 36)"/>
</clipPath>
</defs>
</svg>
